%TF.GenerationSoftware,KiCad,Pcbnew,5.1.9+dfsg1-1~bpo10+1*%
%TF.CreationDate,2025-10-28T22:16:13+01:00*%
%TF.ProjectId,project-f,70726f6a-6563-4742-9d66-2e6b69636164,rev?*%
%TF.SameCoordinates,Original*%
%TF.FileFunction,Legend,Top*%
%TF.FilePolarity,Positive*%
%FSLAX46Y46*%
G04 Gerber Fmt 4.6, Leading zero omitted, Abs format (unit mm)*
G04 Created by KiCad (PCBNEW 5.1.9+dfsg1-1~bpo10+1) date 2025-10-28 22:16:13*
%MOMM*%
%LPD*%
G01*
G04 APERTURE LIST*
%ADD10C,0.300000*%
%ADD11C,0.120000*%
%ADD12C,0.150000*%
G04 APERTURE END LIST*
D10*
X41465714Y-60368571D02*
X41465714Y-58868571D01*
X42037142Y-58868571D01*
X42180000Y-58940000D01*
X42251428Y-59011428D01*
X42322857Y-59154285D01*
X42322857Y-59368571D01*
X42251428Y-59511428D01*
X42180000Y-59582857D01*
X42037142Y-59654285D01*
X41465714Y-59654285D01*
X44108571Y-60368571D02*
X44108571Y-58868571D01*
X44465714Y-58868571D01*
X44680000Y-58940000D01*
X44822857Y-59082857D01*
X44894285Y-59225714D01*
X44965714Y-59511428D01*
X44965714Y-59725714D01*
X44894285Y-60011428D01*
X44822857Y-60154285D01*
X44680000Y-60297142D01*
X44465714Y-60368571D01*
X44108571Y-60368571D01*
X65564285Y-76878571D02*
X65564285Y-75378571D01*
X66135714Y-75378571D01*
X66278571Y-75450000D01*
X66350000Y-75521428D01*
X66421428Y-75664285D01*
X66421428Y-75878571D01*
X66350000Y-76021428D01*
X66278571Y-76092857D01*
X66135714Y-76164285D01*
X65564285Y-76164285D01*
X68207142Y-76878571D02*
X68207142Y-75378571D01*
X68564285Y-75378571D01*
X68778571Y-75450000D01*
X68921428Y-75592857D01*
X68992857Y-75735714D01*
X69064285Y-76021428D01*
X69064285Y-76235714D01*
X68992857Y-76521428D01*
X68921428Y-76664285D01*
X68778571Y-76807142D01*
X68564285Y-76878571D01*
X68207142Y-76878571D01*
X71635714Y-76878571D02*
X70778571Y-76878571D01*
X71207142Y-76878571D02*
X71207142Y-75378571D01*
X71064285Y-75592857D01*
X70921428Y-75735714D01*
X70778571Y-75807142D01*
X73350000Y-75521428D02*
X73421428Y-75450000D01*
X73564285Y-75378571D01*
X73921428Y-75378571D01*
X74064285Y-75450000D01*
X74135714Y-75521428D01*
X74207142Y-75664285D01*
X74207142Y-75807142D01*
X74135714Y-76021428D01*
X73278571Y-76878571D01*
X74207142Y-76878571D01*
X45128571Y-41182857D02*
X43628571Y-41182857D01*
X43628571Y-40611428D01*
X43700000Y-40468571D01*
X43771428Y-40397142D01*
X43914285Y-40325714D01*
X44128571Y-40325714D01*
X44271428Y-40397142D01*
X44342857Y-40468571D01*
X44414285Y-40611428D01*
X44414285Y-41182857D01*
X45128571Y-38540000D02*
X43628571Y-38540000D01*
X43628571Y-38182857D01*
X43700000Y-37968571D01*
X43842857Y-37825714D01*
X43985714Y-37754285D01*
X44271428Y-37682857D01*
X44485714Y-37682857D01*
X44771428Y-37754285D01*
X44914285Y-37825714D01*
X45057142Y-37968571D01*
X45128571Y-38182857D01*
X45128571Y-38540000D01*
X45128571Y-35111428D02*
X45128571Y-35968571D01*
X45128571Y-35540000D02*
X43628571Y-35540000D01*
X43842857Y-35682857D01*
X43985714Y-35825714D01*
X44057142Y-35968571D01*
X43771428Y-33397142D02*
X43700000Y-33325714D01*
X43628571Y-33182857D01*
X43628571Y-32825714D01*
X43700000Y-32682857D01*
X43771428Y-32611428D01*
X43914285Y-32540000D01*
X44057142Y-32540000D01*
X44271428Y-32611428D01*
X45128571Y-33468571D01*
X45128571Y-32540000D01*
X43628571Y-30040000D02*
X43628571Y-30754285D01*
X44342857Y-30825714D01*
X44271428Y-30754285D01*
X44200000Y-30611428D01*
X44200000Y-30254285D01*
X44271428Y-30111428D01*
X44342857Y-30040000D01*
X44485714Y-29968571D01*
X44842857Y-29968571D01*
X44985714Y-30040000D01*
X45057142Y-30111428D01*
X45128571Y-30254285D01*
X45128571Y-30611428D01*
X45057142Y-30754285D01*
X44985714Y-30825714D01*
X43700000Y-27397142D02*
X43628571Y-27540000D01*
X43628571Y-27754285D01*
X43700000Y-27968571D01*
X43842857Y-28111428D01*
X43985714Y-28182857D01*
X44271428Y-28254285D01*
X44485714Y-28254285D01*
X44771428Y-28182857D01*
X44914285Y-28111428D01*
X45057142Y-27968571D01*
X45128571Y-27754285D01*
X45128571Y-27611428D01*
X45057142Y-27397142D01*
X44985714Y-27325714D01*
X44485714Y-27325714D01*
X44485714Y-27611428D01*
X27484285Y-114820000D02*
X27341428Y-114748571D01*
X27127142Y-114748571D01*
X26912857Y-114820000D01*
X26770000Y-114962857D01*
X26698571Y-115105714D01*
X26627142Y-115391428D01*
X26627142Y-115605714D01*
X26698571Y-115891428D01*
X26770000Y-116034285D01*
X26912857Y-116177142D01*
X27127142Y-116248571D01*
X27270000Y-116248571D01*
X27484285Y-116177142D01*
X27555714Y-116105714D01*
X27555714Y-115605714D01*
X27270000Y-115605714D01*
X28198571Y-116248571D02*
X28198571Y-114748571D01*
X29055714Y-116248571D01*
X29055714Y-114748571D01*
X29770000Y-116248571D02*
X29770000Y-114748571D01*
X30127142Y-114748571D01*
X30341428Y-114820000D01*
X30484285Y-114962857D01*
X30555714Y-115105714D01*
X30627142Y-115391428D01*
X30627142Y-115605714D01*
X30555714Y-115891428D01*
X30484285Y-116034285D01*
X30341428Y-116177142D01*
X30127142Y-116248571D01*
X29770000Y-116248571D01*
X32412857Y-116248571D02*
X32412857Y-114748571D01*
X32984285Y-114748571D01*
X33127142Y-114820000D01*
X33198571Y-114891428D01*
X33270000Y-115034285D01*
X33270000Y-115248571D01*
X33198571Y-115391428D01*
X33127142Y-115462857D01*
X32984285Y-115534285D01*
X32412857Y-115534285D01*
X34198571Y-114748571D02*
X34484285Y-114748571D01*
X34627142Y-114820000D01*
X34770000Y-114962857D01*
X34841428Y-115248571D01*
X34841428Y-115748571D01*
X34770000Y-116034285D01*
X34627142Y-116177142D01*
X34484285Y-116248571D01*
X34198571Y-116248571D01*
X34055714Y-116177142D01*
X33912857Y-116034285D01*
X33841428Y-115748571D01*
X33841428Y-115248571D01*
X33912857Y-114962857D01*
X34055714Y-114820000D01*
X34198571Y-114748571D01*
X35341428Y-114748571D02*
X35698571Y-116248571D01*
X35984285Y-115177142D01*
X36270000Y-116248571D01*
X36627142Y-114748571D01*
X37198571Y-115462857D02*
X37698571Y-115462857D01*
X37912857Y-116248571D02*
X37198571Y-116248571D01*
X37198571Y-114748571D01*
X37912857Y-114748571D01*
X39412857Y-116248571D02*
X38912857Y-115534285D01*
X38555714Y-116248571D02*
X38555714Y-114748571D01*
X39127142Y-114748571D01*
X39270000Y-114820000D01*
X39341428Y-114891428D01*
X39412857Y-115034285D01*
X39412857Y-115248571D01*
X39341428Y-115391428D01*
X39270000Y-115462857D01*
X39127142Y-115534285D01*
X38555714Y-115534285D01*
X27484285Y-93230000D02*
X27341428Y-93158571D01*
X27127142Y-93158571D01*
X26912857Y-93230000D01*
X26770000Y-93372857D01*
X26698571Y-93515714D01*
X26627142Y-93801428D01*
X26627142Y-94015714D01*
X26698571Y-94301428D01*
X26770000Y-94444285D01*
X26912857Y-94587142D01*
X27127142Y-94658571D01*
X27270000Y-94658571D01*
X27484285Y-94587142D01*
X27555714Y-94515714D01*
X27555714Y-94015714D01*
X27270000Y-94015714D01*
X28198571Y-94658571D02*
X28198571Y-93158571D01*
X29055714Y-94658571D01*
X29055714Y-93158571D01*
X29770000Y-94658571D02*
X29770000Y-93158571D01*
X30127142Y-93158571D01*
X30341428Y-93230000D01*
X30484285Y-93372857D01*
X30555714Y-93515714D01*
X30627142Y-93801428D01*
X30627142Y-94015714D01*
X30555714Y-94301428D01*
X30484285Y-94444285D01*
X30341428Y-94587142D01*
X30127142Y-94658571D01*
X29770000Y-94658571D01*
X32412857Y-94658571D02*
X32412857Y-93158571D01*
X32984285Y-93158571D01*
X33127142Y-93230000D01*
X33198571Y-93301428D01*
X33270000Y-93444285D01*
X33270000Y-93658571D01*
X33198571Y-93801428D01*
X33127142Y-93872857D01*
X32984285Y-93944285D01*
X32412857Y-93944285D01*
X34198571Y-93158571D02*
X34484285Y-93158571D01*
X34627142Y-93230000D01*
X34770000Y-93372857D01*
X34841428Y-93658571D01*
X34841428Y-94158571D01*
X34770000Y-94444285D01*
X34627142Y-94587142D01*
X34484285Y-94658571D01*
X34198571Y-94658571D01*
X34055714Y-94587142D01*
X33912857Y-94444285D01*
X33841428Y-94158571D01*
X33841428Y-93658571D01*
X33912857Y-93372857D01*
X34055714Y-93230000D01*
X34198571Y-93158571D01*
X35341428Y-93158571D02*
X35698571Y-94658571D01*
X35984285Y-93587142D01*
X36270000Y-94658571D01*
X36627142Y-93158571D01*
X37198571Y-93872857D02*
X37698571Y-93872857D01*
X37912857Y-94658571D02*
X37198571Y-94658571D01*
X37198571Y-93158571D01*
X37912857Y-93158571D01*
X39412857Y-94658571D02*
X38912857Y-93944285D01*
X38555714Y-94658571D02*
X38555714Y-93158571D01*
X39127142Y-93158571D01*
X39270000Y-93230000D01*
X39341428Y-93301428D01*
X39412857Y-93444285D01*
X39412857Y-93658571D01*
X39341428Y-93801428D01*
X39270000Y-93872857D01*
X39127142Y-93944285D01*
X38555714Y-93944285D01*
X28678571Y-77990000D02*
X28535714Y-77918571D01*
X28321428Y-77918571D01*
X28107142Y-77990000D01*
X27964285Y-78132857D01*
X27892857Y-78275714D01*
X27821428Y-78561428D01*
X27821428Y-78775714D01*
X27892857Y-79061428D01*
X27964285Y-79204285D01*
X28107142Y-79347142D01*
X28321428Y-79418571D01*
X28464285Y-79418571D01*
X28678571Y-79347142D01*
X28750000Y-79275714D01*
X28750000Y-78775714D01*
X28464285Y-78775714D01*
X29392857Y-79418571D02*
X29392857Y-77918571D01*
X30250000Y-79418571D01*
X30250000Y-77918571D01*
X30964285Y-79418571D02*
X30964285Y-77918571D01*
X31321428Y-77918571D01*
X31535714Y-77990000D01*
X31678571Y-78132857D01*
X31750000Y-78275714D01*
X31821428Y-78561428D01*
X31821428Y-78775714D01*
X31750000Y-79061428D01*
X31678571Y-79204285D01*
X31535714Y-79347142D01*
X31321428Y-79418571D01*
X30964285Y-79418571D01*
X34321428Y-77918571D02*
X33607142Y-77918571D01*
X33535714Y-78632857D01*
X33607142Y-78561428D01*
X33750000Y-78490000D01*
X34107142Y-78490000D01*
X34250000Y-78561428D01*
X34321428Y-78632857D01*
X34392857Y-78775714D01*
X34392857Y-79132857D01*
X34321428Y-79275714D01*
X34250000Y-79347142D01*
X34107142Y-79418571D01*
X33750000Y-79418571D01*
X33607142Y-79347142D01*
X33535714Y-79275714D01*
X34821428Y-77918571D02*
X35321428Y-79418571D01*
X35821428Y-77918571D01*
X29535714Y-47510000D02*
X29392857Y-47438571D01*
X29178571Y-47438571D01*
X28964285Y-47510000D01*
X28821428Y-47652857D01*
X28750000Y-47795714D01*
X28678571Y-48081428D01*
X28678571Y-48295714D01*
X28750000Y-48581428D01*
X28821428Y-48724285D01*
X28964285Y-48867142D01*
X29178571Y-48938571D01*
X29321428Y-48938571D01*
X29535714Y-48867142D01*
X29607142Y-48795714D01*
X29607142Y-48295714D01*
X29321428Y-48295714D01*
X32107142Y-47438571D02*
X31392857Y-47438571D01*
X31321428Y-48152857D01*
X31392857Y-48081428D01*
X31535714Y-48010000D01*
X31892857Y-48010000D01*
X32035714Y-48081428D01*
X32107142Y-48152857D01*
X32178571Y-48295714D01*
X32178571Y-48652857D01*
X32107142Y-48795714D01*
X32035714Y-48867142D01*
X31892857Y-48938571D01*
X31535714Y-48938571D01*
X31392857Y-48867142D01*
X31321428Y-48795714D01*
X33964285Y-48938571D02*
X33964285Y-47438571D01*
X34535714Y-47438571D01*
X34678571Y-47510000D01*
X34750000Y-47581428D01*
X34821428Y-47724285D01*
X34821428Y-47938571D01*
X34750000Y-48081428D01*
X34678571Y-48152857D01*
X34535714Y-48224285D01*
X33964285Y-48224285D01*
X29535714Y-37350000D02*
X29392857Y-37278571D01*
X29178571Y-37278571D01*
X28964285Y-37350000D01*
X28821428Y-37492857D01*
X28750000Y-37635714D01*
X28678571Y-37921428D01*
X28678571Y-38135714D01*
X28750000Y-38421428D01*
X28821428Y-38564285D01*
X28964285Y-38707142D01*
X29178571Y-38778571D01*
X29321428Y-38778571D01*
X29535714Y-38707142D01*
X29607142Y-38635714D01*
X29607142Y-38135714D01*
X29321428Y-38135714D01*
X32107142Y-37278571D02*
X31392857Y-37278571D01*
X31321428Y-37992857D01*
X31392857Y-37921428D01*
X31535714Y-37850000D01*
X31892857Y-37850000D01*
X32035714Y-37921428D01*
X32107142Y-37992857D01*
X32178571Y-38135714D01*
X32178571Y-38492857D01*
X32107142Y-38635714D01*
X32035714Y-38707142D01*
X31892857Y-38778571D01*
X31535714Y-38778571D01*
X31392857Y-38707142D01*
X31321428Y-38635714D01*
X33964285Y-38778571D02*
X33964285Y-37278571D01*
X34321428Y-37278571D01*
X34535714Y-37350000D01*
X34678571Y-37492857D01*
X34750000Y-37635714D01*
X34821428Y-37921428D01*
X34821428Y-38135714D01*
X34750000Y-38421428D01*
X34678571Y-38564285D01*
X34535714Y-38707142D01*
X34321428Y-38778571D01*
X33964285Y-38778571D01*
X30738571Y-101003571D02*
X30738571Y-99503571D01*
X31310000Y-99503571D01*
X31452857Y-99575000D01*
X31524285Y-99646428D01*
X31595714Y-99789285D01*
X31595714Y-100003571D01*
X31524285Y-100146428D01*
X31452857Y-100217857D01*
X31310000Y-100289285D01*
X30738571Y-100289285D01*
X32238571Y-101003571D02*
X32238571Y-100003571D01*
X32238571Y-100289285D02*
X32310000Y-100146428D01*
X32381428Y-100075000D01*
X32524285Y-100003571D01*
X32667142Y-100003571D01*
X33381428Y-101003571D02*
X33238571Y-100932142D01*
X33167142Y-100860714D01*
X33095714Y-100717857D01*
X33095714Y-100289285D01*
X33167142Y-100146428D01*
X33238571Y-100075000D01*
X33381428Y-100003571D01*
X33595714Y-100003571D01*
X33738571Y-100075000D01*
X33810000Y-100146428D01*
X33881428Y-100289285D01*
X33881428Y-100717857D01*
X33810000Y-100860714D01*
X33738571Y-100932142D01*
X33595714Y-101003571D01*
X33381428Y-101003571D01*
X34524285Y-100003571D02*
X34524285Y-101289285D01*
X34452857Y-101432142D01*
X34310000Y-101503571D01*
X34238571Y-101503571D01*
X34524285Y-99503571D02*
X34452857Y-99575000D01*
X34524285Y-99646428D01*
X34595714Y-99575000D01*
X34524285Y-99503571D01*
X34524285Y-99646428D01*
X35810000Y-100932142D02*
X35667142Y-101003571D01*
X35381428Y-101003571D01*
X35238571Y-100932142D01*
X35167142Y-100789285D01*
X35167142Y-100217857D01*
X35238571Y-100075000D01*
X35381428Y-100003571D01*
X35667142Y-100003571D01*
X35810000Y-100075000D01*
X35881428Y-100217857D01*
X35881428Y-100360714D01*
X35167142Y-100503571D01*
X37167142Y-100932142D02*
X37024285Y-101003571D01*
X36738571Y-101003571D01*
X36595714Y-100932142D01*
X36524285Y-100860714D01*
X36452857Y-100717857D01*
X36452857Y-100289285D01*
X36524285Y-100146428D01*
X36595714Y-100075000D01*
X36738571Y-100003571D01*
X37024285Y-100003571D01*
X37167142Y-100075000D01*
X37595714Y-100003571D02*
X38167142Y-100003571D01*
X37810000Y-99503571D02*
X37810000Y-100789285D01*
X37881428Y-100932142D01*
X38024285Y-101003571D01*
X38167142Y-101003571D01*
X40310000Y-100217857D02*
X39810000Y-100217857D01*
X39810000Y-101003571D02*
X39810000Y-99503571D01*
X40524285Y-99503571D01*
X24060000Y-103553571D02*
X24060000Y-102053571D01*
X24917142Y-103553571D01*
X24917142Y-102053571D01*
X25845714Y-103553571D02*
X25702857Y-103482142D01*
X25631428Y-103410714D01*
X25560000Y-103267857D01*
X25560000Y-102839285D01*
X25631428Y-102696428D01*
X25702857Y-102625000D01*
X25845714Y-102553571D01*
X26060000Y-102553571D01*
X26202857Y-102625000D01*
X26274285Y-102696428D01*
X26345714Y-102839285D01*
X26345714Y-103267857D01*
X26274285Y-103410714D01*
X26202857Y-103482142D01*
X26060000Y-103553571D01*
X25845714Y-103553571D01*
X27631428Y-103553571D02*
X27631428Y-102053571D01*
X27631428Y-103482142D02*
X27488571Y-103553571D01*
X27202857Y-103553571D01*
X27060000Y-103482142D01*
X26988571Y-103410714D01*
X26917142Y-103267857D01*
X26917142Y-102839285D01*
X26988571Y-102696428D01*
X27060000Y-102625000D01*
X27202857Y-102553571D01*
X27488571Y-102553571D01*
X27631428Y-102625000D01*
X28345714Y-103553571D02*
X28345714Y-102553571D01*
X28345714Y-102839285D02*
X28417142Y-102696428D01*
X28488571Y-102625000D01*
X28631428Y-102553571D01*
X28774285Y-102553571D01*
X29917142Y-103553571D02*
X29917142Y-102767857D01*
X29845714Y-102625000D01*
X29702857Y-102553571D01*
X29417142Y-102553571D01*
X29274285Y-102625000D01*
X29917142Y-103482142D02*
X29774285Y-103553571D01*
X29417142Y-103553571D01*
X29274285Y-103482142D01*
X29202857Y-103339285D01*
X29202857Y-103196428D01*
X29274285Y-103053571D01*
X29417142Y-102982142D01*
X29774285Y-102982142D01*
X29917142Y-102910714D01*
X31274285Y-103553571D02*
X31274285Y-102767857D01*
X31202857Y-102625000D01*
X31060000Y-102553571D01*
X30774285Y-102553571D01*
X30631428Y-102625000D01*
X31274285Y-103482142D02*
X31131428Y-103553571D01*
X30774285Y-103553571D01*
X30631428Y-103482142D01*
X30560000Y-103339285D01*
X30560000Y-103196428D01*
X30631428Y-103053571D01*
X30774285Y-102982142D01*
X31131428Y-102982142D01*
X31274285Y-102910714D01*
X31988571Y-103553571D02*
X31988571Y-102053571D01*
X32131428Y-102982142D02*
X32560000Y-103553571D01*
X32560000Y-102553571D02*
X31988571Y-103125000D01*
X34345714Y-102982142D02*
X35488571Y-102982142D01*
X37274285Y-102196428D02*
X37345714Y-102125000D01*
X37488571Y-102053571D01*
X37845714Y-102053571D01*
X37988571Y-102125000D01*
X38060000Y-102196428D01*
X38131428Y-102339285D01*
X38131428Y-102482142D01*
X38060000Y-102696428D01*
X37202857Y-103553571D01*
X38131428Y-103553571D01*
X39060000Y-102053571D02*
X39202857Y-102053571D01*
X39345714Y-102125000D01*
X39417142Y-102196428D01*
X39488571Y-102339285D01*
X39560000Y-102625000D01*
X39560000Y-102982142D01*
X39488571Y-103267857D01*
X39417142Y-103410714D01*
X39345714Y-103482142D01*
X39202857Y-103553571D01*
X39060000Y-103553571D01*
X38917142Y-103482142D01*
X38845714Y-103410714D01*
X38774285Y-103267857D01*
X38702857Y-102982142D01*
X38702857Y-102625000D01*
X38774285Y-102339285D01*
X38845714Y-102196428D01*
X38917142Y-102125000D01*
X39060000Y-102053571D01*
X40131428Y-102196428D02*
X40202857Y-102125000D01*
X40345714Y-102053571D01*
X40702857Y-102053571D01*
X40845714Y-102125000D01*
X40917142Y-102196428D01*
X40988571Y-102339285D01*
X40988571Y-102482142D01*
X40917142Y-102696428D01*
X40060000Y-103553571D01*
X40988571Y-103553571D01*
X42345714Y-102053571D02*
X41631428Y-102053571D01*
X41560000Y-102767857D01*
X41631428Y-102696428D01*
X41774285Y-102625000D01*
X42131428Y-102625000D01*
X42274285Y-102696428D01*
X42345714Y-102767857D01*
X42417142Y-102910714D01*
X42417142Y-103267857D01*
X42345714Y-103410714D01*
X42274285Y-103482142D01*
X42131428Y-103553571D01*
X41774285Y-103553571D01*
X41631428Y-103482142D01*
X41560000Y-103410714D01*
X43060000Y-102982142D02*
X44202857Y-102982142D01*
X45702857Y-103553571D02*
X44845714Y-103553571D01*
X45274285Y-103553571D02*
X45274285Y-102053571D01*
X45131428Y-102267857D01*
X44988571Y-102410714D01*
X44845714Y-102482142D01*
X46631428Y-102053571D02*
X46774285Y-102053571D01*
X46917142Y-102125000D01*
X46988571Y-102196428D01*
X47060000Y-102339285D01*
X47131428Y-102625000D01*
X47131428Y-102982142D01*
X47060000Y-103267857D01*
X46988571Y-103410714D01*
X46917142Y-103482142D01*
X46774285Y-103553571D01*
X46631428Y-103553571D01*
X46488571Y-103482142D01*
X46417142Y-103410714D01*
X46345714Y-103267857D01*
X46274285Y-102982142D01*
X46274285Y-102625000D01*
X46345714Y-102339285D01*
X46417142Y-102196428D01*
X46488571Y-102125000D01*
X46631428Y-102053571D01*
D11*
%TO.C,REF\u002A\u002A*%
X43120000Y-53280000D02*
X44450000Y-53280000D01*
X43120000Y-54610000D02*
X43120000Y-53280000D01*
X43120000Y-55880000D02*
X45780000Y-55880000D01*
X45780000Y-55880000D02*
X45780000Y-58480000D01*
X43120000Y-55880000D02*
X43120000Y-58480000D01*
X43120000Y-58480000D02*
X45780000Y-58480000D01*
X40580000Y-58480000D02*
X43240000Y-58480000D01*
X40580000Y-55880000D02*
X40580000Y-58480000D01*
X43240000Y-55880000D02*
X43240000Y-58480000D01*
X40580000Y-55880000D02*
X43240000Y-55880000D01*
X40580000Y-54610000D02*
X40580000Y-53280000D01*
X40580000Y-53280000D02*
X41910000Y-53280000D01*
X40580000Y-41970000D02*
X43240000Y-41970000D01*
X40580000Y-29210000D02*
X40580000Y-41970000D01*
X43240000Y-29210000D02*
X43240000Y-41970000D01*
X40580000Y-29210000D02*
X43240000Y-29210000D01*
X40580000Y-27940000D02*
X40580000Y-26610000D01*
X40580000Y-26610000D02*
X41910000Y-26610000D01*
X97850000Y-85150000D02*
X97850000Y-82490000D01*
X52070000Y-85150000D02*
X97850000Y-85150000D01*
X52070000Y-82490000D02*
X97850000Y-82490000D01*
X52070000Y-85150000D02*
X52070000Y-82490000D01*
X50800000Y-85150000D02*
X49470000Y-85150000D01*
X49470000Y-85150000D02*
X49470000Y-83820000D01*
D12*
%TO.C,U1*%
X53086000Y-92456000D02*
X96774000Y-92456000D01*
X96774000Y-92456000D02*
X96774000Y-113284000D01*
X96774000Y-113284000D02*
X53086000Y-113284000D01*
X53086000Y-113284000D02*
X53086000Y-92456000D01*
D11*
%TO.C,U2*%
X52070000Y-49590000D02*
X97850000Y-49590000D01*
X50800000Y-49590000D02*
X49470000Y-49590000D01*
X49470000Y-49590000D02*
X49470000Y-48260000D01*
X52070000Y-46930000D02*
X97850000Y-46930000D01*
X97850000Y-49590000D02*
X97850000Y-46930000D01*
X52070000Y-49590000D02*
X52070000Y-46930000D01*
X52070000Y-74990000D02*
X97850000Y-74990000D01*
X50800000Y-74990000D02*
X49470000Y-74990000D01*
X49470000Y-74990000D02*
X49470000Y-73660000D01*
X52070000Y-72330000D02*
X97850000Y-72330000D01*
X97850000Y-74990000D02*
X97850000Y-72330000D01*
X52070000Y-74990000D02*
X52070000Y-72330000D01*
%TO.C,J5_SENSOR1*%
X35620000Y-36890000D02*
X35620000Y-34230000D01*
X30480000Y-36890000D02*
X35620000Y-36890000D01*
X30480000Y-34230000D02*
X35620000Y-34230000D01*
X30480000Y-36890000D02*
X30480000Y-34230000D01*
X29210000Y-36890000D02*
X27880000Y-36890000D01*
X27880000Y-36890000D02*
X27880000Y-35560000D01*
%TO.C,J4_ESC_CONTROL1*%
X35620000Y-47050000D02*
X35620000Y-44390000D01*
X30480000Y-47050000D02*
X35620000Y-47050000D01*
X30480000Y-44390000D02*
X35620000Y-44390000D01*
X30480000Y-47050000D02*
X30480000Y-44390000D01*
X29210000Y-47050000D02*
X27880000Y-47050000D01*
X27880000Y-47050000D02*
X27880000Y-45720000D01*
%TO.C,J1_VCC1*%
D12*
X29765952Y-107402380D02*
X29765952Y-108116666D01*
X29718333Y-108259523D01*
X29623095Y-108354761D01*
X29480238Y-108402380D01*
X29385000Y-108402380D01*
X30765952Y-108402380D02*
X30194523Y-108402380D01*
X30480238Y-108402380D02*
X30480238Y-107402380D01*
X30385000Y-107545238D01*
X30289761Y-107640476D01*
X30194523Y-107688095D01*
X30956428Y-108497619D02*
X31718333Y-108497619D01*
X31813571Y-107402380D02*
X32146904Y-108402380D01*
X32480238Y-107402380D01*
X33385000Y-108307142D02*
X33337380Y-108354761D01*
X33194523Y-108402380D01*
X33099285Y-108402380D01*
X32956428Y-108354761D01*
X32861190Y-108259523D01*
X32813571Y-108164285D01*
X32765952Y-107973809D01*
X32765952Y-107830952D01*
X32813571Y-107640476D01*
X32861190Y-107545238D01*
X32956428Y-107450000D01*
X33099285Y-107402380D01*
X33194523Y-107402380D01*
X33337380Y-107450000D01*
X33385000Y-107497619D01*
X34385000Y-108307142D02*
X34337380Y-108354761D01*
X34194523Y-108402380D01*
X34099285Y-108402380D01*
X33956428Y-108354761D01*
X33861190Y-108259523D01*
X33813571Y-108164285D01*
X33765952Y-107973809D01*
X33765952Y-107830952D01*
X33813571Y-107640476D01*
X33861190Y-107545238D01*
X33956428Y-107450000D01*
X34099285Y-107402380D01*
X34194523Y-107402380D01*
X34337380Y-107450000D01*
X34385000Y-107497619D01*
X35337380Y-108402380D02*
X34765952Y-108402380D01*
X35051666Y-108402380D02*
X35051666Y-107402380D01*
X34956428Y-107545238D01*
X34861190Y-107640476D01*
X34765952Y-107688095D01*
%TO.C,J5_SENSOR1*%
X27607142Y-32472380D02*
X27607142Y-33186666D01*
X27559523Y-33329523D01*
X27464285Y-33424761D01*
X27321428Y-33472380D01*
X27226190Y-33472380D01*
X28559523Y-32472380D02*
X28083333Y-32472380D01*
X28035714Y-32948571D01*
X28083333Y-32900952D01*
X28178571Y-32853333D01*
X28416666Y-32853333D01*
X28511904Y-32900952D01*
X28559523Y-32948571D01*
X28607142Y-33043809D01*
X28607142Y-33281904D01*
X28559523Y-33377142D01*
X28511904Y-33424761D01*
X28416666Y-33472380D01*
X28178571Y-33472380D01*
X28083333Y-33424761D01*
X28035714Y-33377142D01*
X28797619Y-33567619D02*
X29559523Y-33567619D01*
X29750000Y-33424761D02*
X29892857Y-33472380D01*
X30130952Y-33472380D01*
X30226190Y-33424761D01*
X30273809Y-33377142D01*
X30321428Y-33281904D01*
X30321428Y-33186666D01*
X30273809Y-33091428D01*
X30226190Y-33043809D01*
X30130952Y-32996190D01*
X29940476Y-32948571D01*
X29845238Y-32900952D01*
X29797619Y-32853333D01*
X29750000Y-32758095D01*
X29750000Y-32662857D01*
X29797619Y-32567619D01*
X29845238Y-32520000D01*
X29940476Y-32472380D01*
X30178571Y-32472380D01*
X30321428Y-32520000D01*
X30750000Y-32948571D02*
X31083333Y-32948571D01*
X31226190Y-33472380D02*
X30750000Y-33472380D01*
X30750000Y-32472380D01*
X31226190Y-32472380D01*
X31654761Y-33472380D02*
X31654761Y-32472380D01*
X32226190Y-33472380D01*
X32226190Y-32472380D01*
X32654761Y-33424761D02*
X32797619Y-33472380D01*
X33035714Y-33472380D01*
X33130952Y-33424761D01*
X33178571Y-33377142D01*
X33226190Y-33281904D01*
X33226190Y-33186666D01*
X33178571Y-33091428D01*
X33130952Y-33043809D01*
X33035714Y-32996190D01*
X32845238Y-32948571D01*
X32750000Y-32900952D01*
X32702380Y-32853333D01*
X32654761Y-32758095D01*
X32654761Y-32662857D01*
X32702380Y-32567619D01*
X32750000Y-32520000D01*
X32845238Y-32472380D01*
X33083333Y-32472380D01*
X33226190Y-32520000D01*
X33845238Y-32472380D02*
X34035714Y-32472380D01*
X34130952Y-32520000D01*
X34226190Y-32615238D01*
X34273809Y-32805714D01*
X34273809Y-33139047D01*
X34226190Y-33329523D01*
X34130952Y-33424761D01*
X34035714Y-33472380D01*
X33845238Y-33472380D01*
X33750000Y-33424761D01*
X33654761Y-33329523D01*
X33607142Y-33139047D01*
X33607142Y-32805714D01*
X33654761Y-32615238D01*
X33750000Y-32520000D01*
X33845238Y-32472380D01*
X35273809Y-33472380D02*
X34940476Y-32996190D01*
X34702380Y-33472380D02*
X34702380Y-32472380D01*
X35083333Y-32472380D01*
X35178571Y-32520000D01*
X35226190Y-32567619D01*
X35273809Y-32662857D01*
X35273809Y-32805714D01*
X35226190Y-32900952D01*
X35178571Y-32948571D01*
X35083333Y-32996190D01*
X34702380Y-32996190D01*
X36226190Y-33472380D02*
X35654761Y-33472380D01*
X35940476Y-33472380D02*
X35940476Y-32472380D01*
X35845238Y-32615238D01*
X35750000Y-32710476D01*
X35654761Y-32758095D01*
%TO.C,J4_ESC_CONTROL1*%
X25392857Y-42632380D02*
X25392857Y-43346666D01*
X25345238Y-43489523D01*
X25250000Y-43584761D01*
X25107142Y-43632380D01*
X25011904Y-43632380D01*
X26297619Y-42965714D02*
X26297619Y-43632380D01*
X26059523Y-42584761D02*
X25821428Y-43299047D01*
X26440476Y-43299047D01*
X26583333Y-43727619D02*
X27345238Y-43727619D01*
X27583333Y-43108571D02*
X27916666Y-43108571D01*
X28059523Y-43632380D02*
X27583333Y-43632380D01*
X27583333Y-42632380D01*
X28059523Y-42632380D01*
X28440476Y-43584761D02*
X28583333Y-43632380D01*
X28821428Y-43632380D01*
X28916666Y-43584761D01*
X28964285Y-43537142D01*
X29011904Y-43441904D01*
X29011904Y-43346666D01*
X28964285Y-43251428D01*
X28916666Y-43203809D01*
X28821428Y-43156190D01*
X28630952Y-43108571D01*
X28535714Y-43060952D01*
X28488095Y-43013333D01*
X28440476Y-42918095D01*
X28440476Y-42822857D01*
X28488095Y-42727619D01*
X28535714Y-42680000D01*
X28630952Y-42632380D01*
X28869047Y-42632380D01*
X29011904Y-42680000D01*
X30011904Y-43537142D02*
X29964285Y-43584761D01*
X29821428Y-43632380D01*
X29726190Y-43632380D01*
X29583333Y-43584761D01*
X29488095Y-43489523D01*
X29440476Y-43394285D01*
X29392857Y-43203809D01*
X29392857Y-43060952D01*
X29440476Y-42870476D01*
X29488095Y-42775238D01*
X29583333Y-42680000D01*
X29726190Y-42632380D01*
X29821428Y-42632380D01*
X29964285Y-42680000D01*
X30011904Y-42727619D01*
X30202380Y-43727619D02*
X30964285Y-43727619D01*
X31773809Y-43537142D02*
X31726190Y-43584761D01*
X31583333Y-43632380D01*
X31488095Y-43632380D01*
X31345238Y-43584761D01*
X31250000Y-43489523D01*
X31202380Y-43394285D01*
X31154761Y-43203809D01*
X31154761Y-43060952D01*
X31202380Y-42870476D01*
X31250000Y-42775238D01*
X31345238Y-42680000D01*
X31488095Y-42632380D01*
X31583333Y-42632380D01*
X31726190Y-42680000D01*
X31773809Y-42727619D01*
X32392857Y-42632380D02*
X32583333Y-42632380D01*
X32678571Y-42680000D01*
X32773809Y-42775238D01*
X32821428Y-42965714D01*
X32821428Y-43299047D01*
X32773809Y-43489523D01*
X32678571Y-43584761D01*
X32583333Y-43632380D01*
X32392857Y-43632380D01*
X32297619Y-43584761D01*
X32202380Y-43489523D01*
X32154761Y-43299047D01*
X32154761Y-42965714D01*
X32202380Y-42775238D01*
X32297619Y-42680000D01*
X32392857Y-42632380D01*
X33250000Y-43632380D02*
X33250000Y-42632380D01*
X33821428Y-43632380D01*
X33821428Y-42632380D01*
X34154761Y-42632380D02*
X34726190Y-42632380D01*
X34440476Y-43632380D02*
X34440476Y-42632380D01*
X35630952Y-43632380D02*
X35297619Y-43156190D01*
X35059523Y-43632380D02*
X35059523Y-42632380D01*
X35440476Y-42632380D01*
X35535714Y-42680000D01*
X35583333Y-42727619D01*
X35630952Y-42822857D01*
X35630952Y-42965714D01*
X35583333Y-43060952D01*
X35535714Y-43108571D01*
X35440476Y-43156190D01*
X35059523Y-43156190D01*
X36250000Y-42632380D02*
X36440476Y-42632380D01*
X36535714Y-42680000D01*
X36630952Y-42775238D01*
X36678571Y-42965714D01*
X36678571Y-43299047D01*
X36630952Y-43489523D01*
X36535714Y-43584761D01*
X36440476Y-43632380D01*
X36250000Y-43632380D01*
X36154761Y-43584761D01*
X36059523Y-43489523D01*
X36011904Y-43299047D01*
X36011904Y-42965714D01*
X36059523Y-42775238D01*
X36154761Y-42680000D01*
X36250000Y-42632380D01*
X37583333Y-43632380D02*
X37107142Y-43632380D01*
X37107142Y-42632380D01*
X38440476Y-43632380D02*
X37869047Y-43632380D01*
X38154761Y-43632380D02*
X38154761Y-42632380D01*
X38059523Y-42775238D01*
X37964285Y-42870476D01*
X37869047Y-42918095D01*
%TO.C,J3_ESC_POWER1*%
X26837380Y-85812380D02*
X26837380Y-86526666D01*
X26789761Y-86669523D01*
X26694523Y-86764761D01*
X26551666Y-86812380D01*
X26456428Y-86812380D01*
X27218333Y-85812380D02*
X27837380Y-85812380D01*
X27504047Y-86193333D01*
X27646904Y-86193333D01*
X27742142Y-86240952D01*
X27789761Y-86288571D01*
X27837380Y-86383809D01*
X27837380Y-86621904D01*
X27789761Y-86717142D01*
X27742142Y-86764761D01*
X27646904Y-86812380D01*
X27361190Y-86812380D01*
X27265952Y-86764761D01*
X27218333Y-86717142D01*
X28027857Y-86907619D02*
X28789761Y-86907619D01*
X29027857Y-86288571D02*
X29361190Y-86288571D01*
X29504047Y-86812380D02*
X29027857Y-86812380D01*
X29027857Y-85812380D01*
X29504047Y-85812380D01*
X29885000Y-86764761D02*
X30027857Y-86812380D01*
X30265952Y-86812380D01*
X30361190Y-86764761D01*
X30408809Y-86717142D01*
X30456428Y-86621904D01*
X30456428Y-86526666D01*
X30408809Y-86431428D01*
X30361190Y-86383809D01*
X30265952Y-86336190D01*
X30075476Y-86288571D01*
X29980238Y-86240952D01*
X29932619Y-86193333D01*
X29885000Y-86098095D01*
X29885000Y-86002857D01*
X29932619Y-85907619D01*
X29980238Y-85860000D01*
X30075476Y-85812380D01*
X30313571Y-85812380D01*
X30456428Y-85860000D01*
X31456428Y-86717142D02*
X31408809Y-86764761D01*
X31265952Y-86812380D01*
X31170714Y-86812380D01*
X31027857Y-86764761D01*
X30932619Y-86669523D01*
X30885000Y-86574285D01*
X30837380Y-86383809D01*
X30837380Y-86240952D01*
X30885000Y-86050476D01*
X30932619Y-85955238D01*
X31027857Y-85860000D01*
X31170714Y-85812380D01*
X31265952Y-85812380D01*
X31408809Y-85860000D01*
X31456428Y-85907619D01*
X31646904Y-86907619D02*
X32408809Y-86907619D01*
X32646904Y-86812380D02*
X32646904Y-85812380D01*
X33027857Y-85812380D01*
X33123095Y-85860000D01*
X33170714Y-85907619D01*
X33218333Y-86002857D01*
X33218333Y-86145714D01*
X33170714Y-86240952D01*
X33123095Y-86288571D01*
X33027857Y-86336190D01*
X32646904Y-86336190D01*
X33837380Y-85812380D02*
X34027857Y-85812380D01*
X34123095Y-85860000D01*
X34218333Y-85955238D01*
X34265952Y-86145714D01*
X34265952Y-86479047D01*
X34218333Y-86669523D01*
X34123095Y-86764761D01*
X34027857Y-86812380D01*
X33837380Y-86812380D01*
X33742142Y-86764761D01*
X33646904Y-86669523D01*
X33599285Y-86479047D01*
X33599285Y-86145714D01*
X33646904Y-85955238D01*
X33742142Y-85860000D01*
X33837380Y-85812380D01*
X34599285Y-85812380D02*
X34837380Y-86812380D01*
X35027857Y-86098095D01*
X35218333Y-86812380D01*
X35456428Y-85812380D01*
X35837380Y-86288571D02*
X36170714Y-86288571D01*
X36313571Y-86812380D02*
X35837380Y-86812380D01*
X35837380Y-85812380D01*
X36313571Y-85812380D01*
X37313571Y-86812380D02*
X36980238Y-86336190D01*
X36742142Y-86812380D02*
X36742142Y-85812380D01*
X37123095Y-85812380D01*
X37218333Y-85860000D01*
X37265952Y-85907619D01*
X37313571Y-86002857D01*
X37313571Y-86145714D01*
X37265952Y-86240952D01*
X37218333Y-86288571D01*
X37123095Y-86336190D01*
X36742142Y-86336190D01*
X38265952Y-86812380D02*
X37694523Y-86812380D01*
X37980238Y-86812380D02*
X37980238Y-85812380D01*
X37885000Y-85955238D01*
X37789761Y-86050476D01*
X37694523Y-86098095D01*
%TO.C,J2_5V1*%
X30289761Y-70572380D02*
X30289761Y-71286666D01*
X30242142Y-71429523D01*
X30146904Y-71524761D01*
X30004047Y-71572380D01*
X29908809Y-71572380D01*
X30718333Y-70667619D02*
X30765952Y-70620000D01*
X30861190Y-70572380D01*
X31099285Y-70572380D01*
X31194523Y-70620000D01*
X31242142Y-70667619D01*
X31289761Y-70762857D01*
X31289761Y-70858095D01*
X31242142Y-71000952D01*
X30670714Y-71572380D01*
X31289761Y-71572380D01*
X31480238Y-71667619D02*
X32242142Y-71667619D01*
X32956428Y-70572380D02*
X32480238Y-70572380D01*
X32432619Y-71048571D01*
X32480238Y-71000952D01*
X32575476Y-70953333D01*
X32813571Y-70953333D01*
X32908809Y-71000952D01*
X32956428Y-71048571D01*
X33004047Y-71143809D01*
X33004047Y-71381904D01*
X32956428Y-71477142D01*
X32908809Y-71524761D01*
X32813571Y-71572380D01*
X32575476Y-71572380D01*
X32480238Y-71524761D01*
X32432619Y-71477142D01*
X33289761Y-70572380D02*
X33623095Y-71572380D01*
X33956428Y-70572380D01*
X34813571Y-71572380D02*
X34242142Y-71572380D01*
X34527857Y-71572380D02*
X34527857Y-70572380D01*
X34432619Y-70715238D01*
X34337380Y-70810476D01*
X34242142Y-70858095D01*
%TD*%
M02*
