%TF.GenerationSoftware,KiCad,Pcbnew,5.1.9+dfsg1-1~bpo10+1*%
%TF.CreationDate,2025-10-28T22:16:13+01:00*%
%TF.ProjectId,project-f,70726f6a-6563-4742-9d66-2e6b69636164,rev?*%
%TF.SameCoordinates,Original*%
%TF.FileFunction,Copper,L2,Bot*%
%TF.FilePolarity,Positive*%
%FSLAX46Y46*%
G04 Gerber Fmt 4.6, Leading zero omitted, Abs format (unit mm)*
G04 Created by KiCad (PCBNEW 5.1.9+dfsg1-1~bpo10+1) date 2025-10-28 22:16:13*
%MOMM*%
%LPD*%
G01*
G04 APERTURE LIST*
%TA.AperFunction,ComponentPad*%
%ADD10R,1.700000X1.700000*%
%TD*%
%TA.AperFunction,ComponentPad*%
%ADD11O,1.700000X1.700000*%
%TD*%
%TA.AperFunction,ComponentPad*%
%ADD12C,2.499360*%
%TD*%
%TA.AperFunction,ComponentPad*%
%ADD13C,3.000000*%
%TD*%
%TA.AperFunction,ComponentPad*%
%ADD14C,4.500880*%
%TD*%
%TA.AperFunction,ComponentPad*%
%ADD15R,4.500880X4.500880*%
%TD*%
%TA.AperFunction,Conductor*%
%ADD16C,0.250000*%
%TD*%
%TA.AperFunction,Conductor*%
%ADD17C,5.080000*%
%TD*%
G04 APERTURE END LIST*
D10*
%TO.P,REF\u002A\u002A,1*%
%TO.N,/Sensor_signal*%
X44450000Y-54610000D03*
D11*
%TO.P,REF\u002A\u002A,2*%
X44450000Y-57150000D03*
%TD*%
%TO.P,REF\u002A\u002A,2*%
%TO.N,/ESC_PWM*%
X41910000Y-57150000D03*
D10*
%TO.P,REF\u002A\u002A,1*%
X41910000Y-54610000D03*
%TD*%
D11*
%TO.P,REF\u002A\u002A,6*%
%TO.N,/ESC_PWM*%
X41910000Y-40640000D03*
%TO.P,REF\u002A\u002A,5*%
%TO.N,/Sensor_signal*%
X41910000Y-38100000D03*
%TO.P,REF\u002A\u002A,4*%
%TO.N,/Debug1*%
X41910000Y-35560000D03*
%TO.P,REF\u002A\u002A,3*%
%TO.N,/Debug2*%
X41910000Y-33020000D03*
%TO.P,REF\u002A\u002A,2*%
%TO.N,+5V*%
X41910000Y-30480000D03*
D10*
%TO.P,REF\u002A\u002A,1*%
%TO.N,GND*%
X41910000Y-27940000D03*
%TD*%
D12*
%TO.P,REF\u002A\u002A,1*%
%TO.N,+5V*%
X99060000Y-93980000D03*
%TD*%
%TO.P,REF\u002A\u002A,1*%
%TO.N,GND*%
X99060000Y-111760000D03*
%TD*%
%TO.P,REF\u002A\u002A,1*%
%TO.N,GNDPWR*%
X50800000Y-111760000D03*
%TD*%
%TO.P,REF\u002A\u002A,1*%
%TO.N,+VDC*%
X50800000Y-93980000D03*
%TD*%
D11*
%TO.P,REF\u002A\u002A,19*%
%TO.N,+5V*%
X96520000Y-83820000D03*
%TO.P,REF\u002A\u002A,18*%
%TO.N,N/C*%
X93980000Y-83820000D03*
%TO.P,REF\u002A\u002A,17*%
X91440000Y-83820000D03*
%TO.P,REF\u002A\u002A,16*%
X88900000Y-83820000D03*
%TO.P,REF\u002A\u002A,15*%
X86360000Y-83820000D03*
%TO.P,REF\u002A\u002A,14*%
%TO.N,GND*%
X83820000Y-83820000D03*
%TO.P,REF\u002A\u002A,13*%
%TO.N,N/C*%
X81280000Y-83820000D03*
%TO.P,REF\u002A\u002A,12*%
X78740000Y-83820000D03*
%TO.P,REF\u002A\u002A,11*%
X76200000Y-83820000D03*
%TO.P,REF\u002A\u002A,10*%
X73660000Y-83820000D03*
%TO.P,REF\u002A\u002A,9*%
X71120000Y-83820000D03*
%TO.P,REF\u002A\u002A,8*%
X68580000Y-83820000D03*
%TO.P,REF\u002A\u002A,7*%
X66040000Y-83820000D03*
%TO.P,REF\u002A\u002A,6*%
X63500000Y-83820000D03*
%TO.P,REF\u002A\u002A,5*%
X60960000Y-83820000D03*
%TO.P,REF\u002A\u002A,4*%
X58420000Y-83820000D03*
%TO.P,REF\u002A\u002A,3*%
X55880000Y-83820000D03*
%TO.P,REF\u002A\u002A,2*%
X53340000Y-83820000D03*
D10*
%TO.P,REF\u002A\u002A,1*%
X50800000Y-83820000D03*
%TD*%
D13*
%TO.P,U1,5*%
%TO.N,Net-(U1-Pad5)*%
X90170000Y-110744000D03*
X59690000Y-94996000D03*
D10*
%TO.P,U1,2*%
%TO.N,GND*%
X95250000Y-111760000D03*
%TO.P,U1,4*%
%TO.N,+5V*%
X95250000Y-93980000D03*
%TO.P,U1,1*%
%TO.N,+VDC*%
X54610000Y-93980000D03*
%TO.P,U1,3*%
%TO.N,GNDPWR*%
X54610000Y-111760000D03*
%TD*%
D14*
%TO.P,J1_VCC1,2*%
%TO.N,+VDC*%
X35560000Y-111760000D03*
D15*
%TO.P,J1_VCC1,1*%
%TO.N,GNDPWR*%
X29210000Y-111760000D03*
%TD*%
D11*
%TO.P,U2,31*%
%TO.N,N/C*%
X68580000Y-48260000D03*
%TO.P,U2,33*%
X63500000Y-48260000D03*
%TO.P,U2,32*%
X66040000Y-48260000D03*
%TO.P,U2,35*%
X58420000Y-48260000D03*
%TO.P,U2,24*%
X86360000Y-48260000D03*
%TO.P,U2,22*%
X91440000Y-48260000D03*
%TO.P,U2,28*%
X76200000Y-48260000D03*
%TO.P,U2,25*%
X83820000Y-48260000D03*
%TO.P,U2,36*%
X55880000Y-48260000D03*
%TO.P,U2,27*%
X78740000Y-48260000D03*
%TO.P,U2,29*%
X73660000Y-48260000D03*
%TO.P,U2,30*%
X71120000Y-48260000D03*
%TO.P,U2,37*%
X53340000Y-48260000D03*
%TO.P,U2,21*%
X93980000Y-48260000D03*
%TO.P,U2,20*%
X96520000Y-48260000D03*
%TO.P,U2,23*%
X88900000Y-48260000D03*
%TO.P,U2,26*%
X81280000Y-48260000D03*
D10*
%TO.P,U2,38*%
%TO.N,GND*%
X50800000Y-48260000D03*
D11*
%TO.P,U2,34*%
%TO.N,N/C*%
X60960000Y-48260000D03*
%TO.P,U2,9*%
%TO.N,/Sensor_signal*%
X68580000Y-73660000D03*
%TO.P,U2,6*%
%TO.N,N/C*%
X63500000Y-73660000D03*
%TO.P,U2,8*%
%TO.N,/ESC_PWM*%
X66040000Y-73660000D03*
%TO.P,U2,4*%
%TO.N,N/C*%
X58420000Y-73660000D03*
%TO.P,U2,15*%
%TO.N,GND*%
X86360000Y-73660000D03*
%TO.P,U2,17*%
%TO.N,N/C*%
X91440000Y-73660000D03*
%TO.P,U2,11*%
X76200000Y-73660000D03*
%TO.P,U2,1*%
%TO.N,GND*%
X83820000Y-73660000D03*
%TO.P,U2,3*%
%TO.N,N/C*%
X55880000Y-73660000D03*
%TO.P,U2,12*%
X78740000Y-73660000D03*
%TO.P,U2,10*%
%TO.N,/Debug2*%
X73660000Y-73660000D03*
%TO.P,U2,7*%
%TO.N,/Debug1*%
X71120000Y-73660000D03*
%TO.P,U2,19*%
%TO.N,N/C*%
X53340000Y-73660000D03*
%TO.P,U2,18*%
X93980000Y-73660000D03*
%TO.P,U2,2*%
%TO.N,+5V*%
X96520000Y-73660000D03*
%TO.P,U2,16*%
%TO.N,N/C*%
X88900000Y-73660000D03*
%TO.P,U2,13*%
X81280000Y-73660000D03*
D10*
%TO.P,U2,14*%
X50800000Y-73660000D03*
D11*
%TO.P,U2,5*%
X60960000Y-73660000D03*
%TD*%
%TO.P,J5_SENSOR1,3*%
%TO.N,/Sensor_signal*%
X34290000Y-35560000D03*
%TO.P,J5_SENSOR1,2*%
%TO.N,+5V*%
X31750000Y-35560000D03*
D10*
%TO.P,J5_SENSOR1,1*%
%TO.N,GND*%
X29210000Y-35560000D03*
%TD*%
D11*
%TO.P,J4_ESC_CONTROL1,3*%
%TO.N,/ESC_PWM*%
X34290000Y-45720000D03*
%TO.P,J4_ESC_CONTROL1,2*%
%TO.N,+5V*%
X31750000Y-45720000D03*
D10*
%TO.P,J4_ESC_CONTROL1,1*%
%TO.N,GND*%
X29210000Y-45720000D03*
%TD*%
D14*
%TO.P,J3_ESC_POWER1,2*%
%TO.N,+VDC*%
X35560000Y-90170000D03*
D15*
%TO.P,J3_ESC_POWER1,1*%
%TO.N,GNDPWR*%
X29210000Y-90170000D03*
%TD*%
D14*
%TO.P,J2_5V1,2*%
%TO.N,+5V*%
X35560000Y-74930000D03*
D15*
%TO.P,J2_5V1,1*%
%TO.N,GND*%
X29210000Y-74930000D03*
%TD*%
D16*
%TO.N,/Debug1*%
X41910000Y-35560000D02*
X43180000Y-35560000D01*
X43180000Y-35560000D02*
X45720000Y-38100000D01*
X49530000Y-53340000D02*
X52070000Y-53340000D01*
X45720000Y-38100000D02*
X45720000Y-49530000D01*
X45720000Y-49530000D02*
X49530000Y-53340000D01*
X52070000Y-53340000D02*
X71120000Y-72390000D01*
%TO.N,/Debug2*%
X41910000Y-33020000D02*
X43180000Y-33020000D01*
X46990000Y-36830000D02*
X46990000Y-48260000D01*
X43180000Y-33020000D02*
X46990000Y-36830000D01*
X50800000Y-52070000D02*
X53340000Y-52070000D01*
X46990000Y-48260000D02*
X50800000Y-52070000D01*
X53340000Y-52070000D02*
X73660000Y-72390000D01*
%TO.N,+VDC*%
X39370000Y-93980000D02*
X36830000Y-93980000D01*
D17*
X35560000Y-111760000D02*
X35560000Y-90170000D01*
X39370000Y-93980000D02*
X35560000Y-90170000D01*
X40640000Y-109220000D02*
X40640000Y-95250000D01*
X35560000Y-111760000D02*
X38100000Y-111760000D01*
X40640000Y-95250000D02*
X39370000Y-93980000D01*
X38100000Y-111760000D02*
X40640000Y-109220000D01*
D16*
X54610000Y-93980000D02*
X50800000Y-93980000D01*
X50800000Y-93980000D02*
X39370000Y-93980000D01*
%TO.N,GND*%
X95250000Y-111760000D02*
X95250000Y-110490000D01*
X83820000Y-87630000D02*
X83820000Y-87630000D01*
X29210000Y-45720000D02*
X29210000Y-74930000D01*
X29210000Y-77470000D02*
X31750000Y-80010000D01*
X29210000Y-74930000D02*
X29210000Y-77470000D01*
X95250000Y-110490000D02*
X96520000Y-109220000D01*
X99060000Y-111760000D02*
X96520000Y-109220000D01*
X41910000Y-27940000D02*
X35560000Y-27940000D01*
X29210000Y-34290000D02*
X29210000Y-35560000D01*
X35560000Y-27940000D02*
X29210000Y-34290000D01*
X29210000Y-35560000D02*
X29210000Y-45720000D01*
X83820000Y-83820000D02*
X83820000Y-82550000D01*
X83820000Y-82550000D02*
X81280000Y-80010000D01*
X31750000Y-80010000D02*
X81280000Y-80010000D01*
X83820000Y-85090000D02*
X83820000Y-83820000D01*
X96520000Y-109220000D02*
X83820000Y-96520000D01*
X83820000Y-96520000D02*
X83820000Y-85090000D01*
%TO.N,+5V*%
X31750000Y-45720000D02*
X31750000Y-68580000D01*
X81280000Y-77470000D02*
X81280000Y-77470000D01*
X41910000Y-30480000D02*
X40640000Y-30480000D01*
X95250000Y-93980000D02*
X97790000Y-93980000D01*
X97790000Y-93980000D02*
X99060000Y-93980000D01*
X96520000Y-92710000D02*
X96520000Y-93980000D01*
X31750000Y-34290000D02*
X31750000Y-35560000D01*
X41910000Y-30480000D02*
X35560000Y-30480000D01*
X35560000Y-30480000D02*
X31750000Y-34290000D01*
X31750000Y-45720000D02*
X31750000Y-35560000D01*
X35560000Y-74930000D02*
X31750000Y-71120000D01*
X31750000Y-71120000D02*
X31750000Y-68580000D01*
X96520000Y-77470000D02*
X96520000Y-73660000D01*
X35560000Y-74930000D02*
X38100000Y-77470000D01*
X38100000Y-77470000D02*
X96520000Y-77470000D01*
X96520000Y-77470000D02*
X96520000Y-83820000D01*
X96520000Y-92710000D02*
X96520000Y-83820000D01*
%TO.N,/ESC_PWM*%
X34290000Y-45720000D02*
X34290000Y-44450000D01*
X34290000Y-44450000D02*
X38100000Y-40640000D01*
X38100000Y-40640000D02*
X41910000Y-40640000D01*
X41910000Y-40640000D02*
X41910000Y-54610000D01*
X41910000Y-58420000D02*
X41910000Y-57150000D01*
X54610000Y-71120000D02*
X41910000Y-58420000D01*
X64770000Y-71120000D02*
X54610000Y-71120000D01*
X66040000Y-73660000D02*
X66040000Y-72390000D01*
X66040000Y-72390000D02*
X64770000Y-71120000D01*
%TO.N,/Sensor_signal*%
X34290000Y-35560000D02*
X34290000Y-36830000D01*
X35560000Y-38100000D02*
X41910000Y-38100000D01*
X34290000Y-36830000D02*
X35560000Y-38100000D01*
X43180000Y-38100000D02*
X41910000Y-38100000D01*
X44450000Y-39370000D02*
X43180000Y-38100000D01*
X44450000Y-39370000D02*
X44450000Y-54610000D01*
X66040000Y-69850000D02*
X55880000Y-69850000D01*
X68580000Y-73660000D02*
X68580000Y-72390000D01*
X44450000Y-58420000D02*
X44450000Y-57150000D01*
X55880000Y-69850000D02*
X44450000Y-58420000D01*
X68580000Y-72390000D02*
X66040000Y-69850000D01*
%TO.N,GNDPWR*%
X34290000Y-116840000D02*
X39370000Y-116840000D01*
X39370000Y-116840000D02*
X44450000Y-111760000D01*
X29210000Y-111760000D02*
X29210000Y-114300000D01*
X31750000Y-116840000D02*
X29210000Y-114300000D01*
X31750000Y-116840000D02*
X34290000Y-116840000D01*
D17*
X26670000Y-111760000D02*
X29210000Y-111760000D01*
X24130000Y-109220000D02*
X26670000Y-111760000D01*
X24130000Y-93980000D02*
X24130000Y-109220000D01*
X29210000Y-90170000D02*
X27940000Y-90170000D01*
X27940000Y-90170000D02*
X24130000Y-93980000D01*
X29210000Y-111760000D02*
X29210000Y-95250000D01*
X29210000Y-93980000D02*
X29210000Y-95250000D01*
D16*
X54610000Y-111760000D02*
X50800000Y-111760000D01*
X50800000Y-111760000D02*
X44450000Y-111760000D01*
%TO.N,/Debug2*%
X73660000Y-73660000D02*
X73660000Y-72390000D01*
%TO.N,/Debug1*%
X71120000Y-73660000D02*
X71120000Y-72390000D01*
%TD*%
M02*
