M48
METRIC
T1C1.000
T2C1.001
T3C1.999
T4C3.000
%
G90
G05
T1
X29.21Y-35.56
X29.21Y-45.72
X31.75Y-35.56
X31.75Y-45.72
X34.29Y-35.56
X34.29Y-45.72
X41.91Y-27.94
X41.91Y-30.48
X41.91Y-33.02
X41.91Y-35.56
X41.91Y-38.1
X41.91Y-40.64
X41.91Y-54.61
X41.91Y-57.15
X44.45Y-54.61
X44.45Y-57.15
X50.8Y-48.26
X50.8Y-73.66
X50.8Y-83.82
X53.34Y-48.26
X53.34Y-73.66
X53.34Y-83.82
X54.61Y-93.98
X54.61Y-111.76
X55.88Y-48.26
X55.88Y-73.66
X55.88Y-83.82
X58.42Y-48.26
X58.42Y-73.66
X58.42Y-83.82
X60.96Y-48.26
X60.96Y-73.66
X60.96Y-83.82
X63.5Y-48.26
X63.5Y-73.66
X63.5Y-83.82
X66.04Y-48.26
X66.04Y-73.66
X66.04Y-83.82
X68.58Y-48.26
X68.58Y-73.66
X68.58Y-83.82
X71.12Y-48.26
X71.12Y-73.66
X71.12Y-83.82
X73.66Y-48.26
X73.66Y-73.66
X73.66Y-83.82
X76.2Y-48.26
X76.2Y-73.66
X76.2Y-83.82
X78.74Y-48.26
X78.74Y-73.66
X78.74Y-83.82
X81.28Y-48.26
X81.28Y-73.66
X81.28Y-83.82
X83.82Y-48.26
X83.82Y-73.66
X83.82Y-83.82
X86.36Y-48.26
X86.36Y-73.66
X86.36Y-83.82
X88.9Y-48.26
X88.9Y-73.66
X88.9Y-83.82
X91.44Y-48.26
X91.44Y-73.66
X91.44Y-83.82
X93.98Y-48.26
X93.98Y-73.66
X93.98Y-83.82
X95.25Y-93.98
X95.25Y-111.76
X96.52Y-48.26
X96.52Y-73.66
X96.52Y-83.82
T2
X50.8Y-93.98
X50.8Y-111.76
X99.06Y-93.98
X99.06Y-111.76
T3
X29.21Y-74.93
X29.21Y-90.17
X29.21Y-111.76
X35.56Y-74.93
X35.56Y-90.17
X35.56Y-111.76
T4
X59.69Y-94.996
X90.17Y-110.744
T0
M30
