%TF.GenerationSoftware,KiCad,Pcbnew,5.1.9+dfsg1-1~bpo10+1*%
%TF.CreationDate,2025-10-28T22:16:13+01:00*%
%TF.ProjectId,project-f,70726f6a-6563-4742-9d66-2e6b69636164,rev?*%
%TF.SameCoordinates,Original*%
%TF.FileFunction,Soldermask,Bot*%
%TF.FilePolarity,Negative*%
%FSLAX46Y46*%
G04 Gerber Fmt 4.6, Leading zero omitted, Abs format (unit mm)*
G04 Created by KiCad (PCBNEW 5.1.9+dfsg1-1~bpo10+1) date 2025-10-28 22:16:13*
%MOMM*%
%LPD*%
G01*
G04 APERTURE LIST*
%ADD10R,1.700000X1.700000*%
%ADD11O,1.700000X1.700000*%
%ADD12C,2.499360*%
%ADD13C,3.000000*%
%ADD14C,4.500880*%
%ADD15R,4.500880X4.500880*%
G04 APERTURE END LIST*
D10*
%TO.C,REF\u002A\u002A*%
X44450000Y-54610000D03*
D11*
X44450000Y-57150000D03*
%TD*%
%TO.C,REF\u002A\u002A*%
X41910000Y-57150000D03*
D10*
X41910000Y-54610000D03*
%TD*%
D11*
%TO.C,REF\u002A\u002A*%
X41910000Y-40640000D03*
X41910000Y-38100000D03*
X41910000Y-35560000D03*
X41910000Y-33020000D03*
X41910000Y-30480000D03*
D10*
X41910000Y-27940000D03*
%TD*%
D12*
%TO.C,REF\u002A\u002A*%
X99060000Y-93980000D03*
%TD*%
%TO.C,REF\u002A\u002A*%
X99060000Y-111760000D03*
%TD*%
%TO.C,REF\u002A\u002A*%
X50800000Y-111760000D03*
%TD*%
%TO.C,REF\u002A\u002A*%
X50800000Y-93980000D03*
%TD*%
D11*
%TO.C,REF\u002A\u002A*%
X96520000Y-83820000D03*
X93980000Y-83820000D03*
X91440000Y-83820000D03*
X88900000Y-83820000D03*
X86360000Y-83820000D03*
X83820000Y-83820000D03*
X81280000Y-83820000D03*
X78740000Y-83820000D03*
X76200000Y-83820000D03*
X73660000Y-83820000D03*
X71120000Y-83820000D03*
X68580000Y-83820000D03*
X66040000Y-83820000D03*
X63500000Y-83820000D03*
X60960000Y-83820000D03*
X58420000Y-83820000D03*
X55880000Y-83820000D03*
X53340000Y-83820000D03*
D10*
X50800000Y-83820000D03*
%TD*%
D13*
%TO.C,U1*%
X90170000Y-110744000D03*
X59690000Y-94996000D03*
D10*
X95250000Y-111760000D03*
X95250000Y-93980000D03*
X54610000Y-93980000D03*
X54610000Y-111760000D03*
%TD*%
D14*
%TO.C,J1_VCC1*%
X35560000Y-111760000D03*
D15*
X29210000Y-111760000D03*
%TD*%
D11*
%TO.C,U2*%
X68580000Y-48260000D03*
X63500000Y-48260000D03*
X66040000Y-48260000D03*
X58420000Y-48260000D03*
X86360000Y-48260000D03*
X91440000Y-48260000D03*
X76200000Y-48260000D03*
X83820000Y-48260000D03*
X55880000Y-48260000D03*
X78740000Y-48260000D03*
X73660000Y-48260000D03*
X71120000Y-48260000D03*
X53340000Y-48260000D03*
X93980000Y-48260000D03*
X96520000Y-48260000D03*
X88900000Y-48260000D03*
X81280000Y-48260000D03*
D10*
X50800000Y-48260000D03*
D11*
X60960000Y-48260000D03*
X68580000Y-73660000D03*
X63500000Y-73660000D03*
X66040000Y-73660000D03*
X58420000Y-73660000D03*
X86360000Y-73660000D03*
X91440000Y-73660000D03*
X76200000Y-73660000D03*
X83820000Y-73660000D03*
X55880000Y-73660000D03*
X78740000Y-73660000D03*
X73660000Y-73660000D03*
X71120000Y-73660000D03*
X53340000Y-73660000D03*
X93980000Y-73660000D03*
X96520000Y-73660000D03*
X88900000Y-73660000D03*
X81280000Y-73660000D03*
D10*
X50800000Y-73660000D03*
D11*
X60960000Y-73660000D03*
%TD*%
%TO.C,J5_SENSOR1*%
X34290000Y-35560000D03*
X31750000Y-35560000D03*
D10*
X29210000Y-35560000D03*
%TD*%
D11*
%TO.C,J4_ESC_CONTROL1*%
X34290000Y-45720000D03*
X31750000Y-45720000D03*
D10*
X29210000Y-45720000D03*
%TD*%
D14*
%TO.C,J3_ESC_POWER1*%
X35560000Y-90170000D03*
D15*
X29210000Y-90170000D03*
%TD*%
D14*
%TO.C,J2_5V1*%
X35560000Y-74930000D03*
D15*
X29210000Y-74930000D03*
%TD*%
M02*
